<svg xmlns="http://www.w3.org/2000/svg" width="350.933" height="466.667">
    <path
        d="M2205.06 1302.39c-27 57.19-51.16 114.19-85.02 166.75-36.89 57.24-60.54 122.95-98.54 178.67-6.65 9.78-9.47 22.94-17.68 31.25-8.48 8.28-18.91 13.67-27.45 22.07-18.89 17.18-47.52 15.47-68.83 28.53-51.68-7-101.7-26.73-153.46-35.64-130.4-22.38-263.45-48.72-391.54-17.46-24.78 6.3-47.74 13.79-73.79 11.55-26.48-2.29-54.67-4.68-80.74-11.7-12.66-3.4-21.75-8.2-34.43-3.71-10.63 3.8-20.98 8.44-31.49 12.53-27.56 11.03-51.29 30.64-79.23 40.24-37.21 12.75-96.368 21.97-126.454-14.18-32.64-39.2-53.754-78.11-62.074-130.66-8.375-59.84-10.762-116.48 8.664-174.59 17.645-58.74 40.219-113.55 76.863-156.5 40.231-43.78 85.731-89.54 138.561-129.02 41.69-25.44 104.94-35.62 176.42-43.57 97.13-6.66 200.81 6.36 289.47 18.74 80.84 11.29 133.06 11.65 166.65 23.46-70.12-62.61-265.4-104.99-465.18-108.3-74.94 2.85-138.37.04-188.65-24.998-44.02-24.473-65.81-67.793-97.239-102.219-55.883-78.528-91.672-165.945-113.364-261.582-24.586-108.399-41.726-223.828-7.164-328.438-74.261 72.578-82.078 206.848-65.644 312.649 8.316 53.551 25.773 100.027 48.945 148.496 11.18 23.387 23.012 46.402 31.961 70.906 6.191 16.902 2.609 37.883.633 55.149-30.414-5.813-59.305-17.668-89.43-24.504-27.367-5.871-61.746 1.738-88.109 8.093-28.067 6.809-54.903 10.715-84.09 10.539-17.086.235-33.953.829-50.973 2.942-19.734 2.344-32.836 12.058-50.258 20.508-25.543 11.257-45.703 3.328-70.007-14.203-22.989-17.391-54.629-32.879-83.168-40.309-19.356-5.363-36.766-8.711-53.446-10.078-16.687-1.379-32.5-.754-48.875 1.836-14.3 2.398-28.687 6.187-43.148 8.316-14.453 2.141-28.988 2.629-43.758-1.551-6.812-1.922-13.543-4.433-20.16-7.265-3.176-8.742-6.527-17.434-9.684-26.16-4.968-13.723-9.73-27.485-13.179-41.348-4.825-19.426-8.805-38.84-12.278-58.281-3.465-19.446-6.3-38.91-8.91-58.403-2.5-18.679-4.574-37.207-5.898-55.672-1.324-18.488-1.973-36.882-1.66-55.324.32-18.445 1.515-36.89 3.882-55.476 2.383-18.582 5.875-37.266 10.844-56.16 7.152-27.227 17.047-53.223 28.985-78.02 11.933-24.773 25.742-48.32 40.64-70.613 14.902-22.309 30.703-43.364 47.086-63.164 16.039-19.805 33.504-38.418 51.848-55.84 36.687-34.856 76.883-64.961 116.093-90.371 63.563-41.262 133.192-38.918 206.086-36.621 73.305 2.312 146.872 6.422 219.844 19.785 37.473 6.883 71.992 19.273 106.453 38.328 15.227 8.398 29.989 17.793 44.703 27.312 4.153 2.707 8.297 5.403 12.422 8.164a703 703 0 0 1 29.257-23.433c60.99-46.262 128.53-78.781 202.44-93.88 76.48-15.644 154.3-11.237 232.15 2.044 72.03 12.305 145.27 28.152 214.75 55.379 147.61 57.707 237.22 207.453 301.63 358.484 30.87 72.18 58.81 145.852 88.95 218.403 30.12 72.476 69.38 139.91 100.53 211.824 31.5 72.707 48.86 147.786 58.28 226.406 4.42 36.78 7.44 73.63 8.79 110.55.74 20.39.7 40.69.42 61.05-.21 17.68-11.95 33.03-19.25 48.29M1033.97 2854.17c9.14-88.85 27.71-169.38 51.78-253.6 22.32-78.08 38.12-159.36 48.88-242.46 10.3-79.55 8.26-164.44 11.45-247.37 2.73-71.49 19.92-128.79 28.11-192.59 5.76-50.6-13.8-132.54 36.48-154.3 22.18-9.76 39.71-3.09 62.36 2.66 33.48 8.49 64.99.4 97.99-2.82 30.25-2.96 60.41-2.67 90.29-8.55 34.94-6.86 67.67-15.51 103.89-14.21 29.41 1.69 58.66 6.2 87.85 11.59 16.5 3.03 26.11-.99 27.9 18.57.11 17.96-4.65 35.16-10.16 51.51-10.44 32.31-16.63 65.04-24.05 98.38-8.3 36.29-21.4 71.41-23.38 109.49-1.7 32.8-9.11 63.67-8.87 97.26.35 42.18-3.38 80.01-11.41 120.77-13.99 71-22.03 143.4-35.99 214.46-7.38 37.63-6.31 73.02-3.39 111.75 3.5 46.26 1.17 89.53-9.5 133.64-20.19 79.89-30.18 158.8-36.56 241.99-2.88 37.43-6.32 74.56-13.37 111.09-8.48 41.21-23.32 79.94-32.85 120.76-8.49 36.33-13.54 73.26-15.58 111.08-1.25 22.94 1.49 46.03-5.66 67.42-25.55 76.61-88.78 126.71-162.2 137.48-56.45 8.28-115.28-11.45-154.91-60.94-40.08-50.08-65.1-117.76-82.09-180.28-35.91-132.22-27.07-269.73-17.01-402.78m1597.55 465.42c-8.31 86.93-92.68 118.34-160.66 125.39-74.26 7.7-143.86-9.71-209.85-53.54-67.07-44.54-108.82-104.33-142.55-180.72-33.19-75.1-59.32-149.54-75.51-230.45-8.08-40.33-17.19-81.65-31.22-120.34-11.79-32.62-29.64-62.45-43.16-94.28-26.61-69.17-42.07-149.61-52.2-222.9-10.3-74.43-18.05-143.31-48.81-212.91-14.63-33.2-32.51-64.45-45.04-98.71-14.31-39.18-24.49-80.23-34.93-120.65-18.5-71.67-31.7-145.46-46.65-217.92-6.39-34.38-9.3-68.7-3.91-102.81 2.71-17.13 11.37-17.13 27.3-16.9 14.46.22 28.51 5.29 42.59 9.07 27.14 7.01 54.94 10.42 82.41 14.38 29.31 4.96 65.82 10.67 92.7-3.74 48.77-26.16 88.89-70.51 119.65-118.61 12.93-19.39 28.49-37.93 39.87-58.44 7.18-13.8 28.97-72.81 39.6-32.06 15.74 60.37 28.69 121.15 44.53 181.61 20.14 76.91 31.99 154.3 43.84 232.71 12.25 81.22 18 164.04 39.71 243.57 24.36 89.16 68.81 171.21 97.21 259.02 30.84 95.44 30.8 195.64 63.84 290.46 14.55 41.71 28.4 81.4 36.88 125.01 9.89 50.73 16.9 102.07 30.69 152 11.9 43.14 29.37 83.13 50.72 121.93 21.95 39.92 47.45 82.04 42.95 129.83M413.727 1419.05c1.882-47.45 2.14-84.66 8.632-116.02 2.469-35.55 6.45-72.54 13.34-111.48-7.648-86.63.629-181.57 46.094-217.89 19.613-10.113 42.402-24.949 72.023-28.57 31.317-7.231 66.075 6.504 97.051 7.398 36.598.942 69.082-16.101 104.914-17.859 30.114-.598 62.09 11.328 92.293 15.84 55.188 6.426 113.684 15.976 146.559 78.711 28.247 70.44-16.395 82.98-64.024 115.08-55.066 65.76-81.156 113.89-101.82 164.9-33.461 70.06-36.223 150.43-36.992 233.82.543 27.06-1.977 53.88.394 80.81 3.422 31.15 25.137 61.01 43.508 83.65 21.356 25.26 44.594 54.86 72.809 70.97 22.933 13.44 52.875 12.77 78.117 17.83 34.705 6.59 138.095-45.89 148.495 12.59 7.75 42.66-49.95 65.09-77.67 62.42-13.22-.63-25.61-1.02-36.85 1.55-12.5 3.27-26.85 1.77-42.752.3-29.606-2.75-60.496-3.31-93.723-3.94-34.121 1.7-68.617 3.73-104.457 7.17-38.07 5.83-77.047 11.28-115.625 15.5-21.797 1-48.793-1.44-68.809.53-28.023 1.02-51.183 2.29-73.254-5.95-20.972-11.46-41.261-21.96-60.363-42.54-9.035-9.24-18.254-20.8-26.269-32.73-7.5-11.59-13.821-24.17-17.356-36-4.019-21.95.719-41.12-1.289-60.51 2.613-13.36 1.149-28.09 7.317-43.82-8.34-39.85-9.469-79.29-8.903-115.7-2.476-46.88-2.637-89.78-.914-135.53M158.637 900.547c14.234-1.707 26.859-2.168 38.801-2.402 11.859.117 25.031.019 41.007-1.629 16.66-1.743 34.371-3.032 53.938-2.278 22.203 1.485 45.301 5.645 66.734 13.223 15.75 6.035 33.446 12.629 47.723 19.758 13.144 6.426 23.34 13.777 26.836 21.543 6.148 15.34-24.196 19.883-35.199 27.429-30.969 43.539-23.18 123.539-29.645 176.679-2.504 87.4-7.441 157.67-13.812 247.88-.317 47.91-5.567 86.91-9.45 114.25 1.223 33.89 9.481 86.94-6.375 120.53 2.344 35.54 8.211 65.17-1.035 95.02-1.648 7.06-1.582 14.25 1.059 21.72 6.363 10.29 3.359 7.71-5.949 7.26-14.59-.51-28.086-2.26-41.008-4.85-11.203-2.57-23.196-4.99-35.907-7.32-12.648-1.58-25.101-2.45-37.011-3.3-14.192-.56-26.469-4.3-38.906-8.98-13.301-5.41-26.938-12.16-41.329-17.46-12.328-4.51-24.011-6.81-35.336-10.1-10.906-3.57-21.648-7.99-33.242-16.43-11.703-8.55-21.613-19.86-29.726-31.27-7.344-11.3-12.664-23-16.434-32.7-3.976-11.89-6.984-23.9-9.195-36.4-1.934-12.73-3.235-26.17-4.844-40.39-1.168-15.12-2.617-31.04-3.844-47.95-1.468-18.02-3.168-37.19-4.707-57.54-1.539-20.4-2.105-40.46-1.605-60.4.71-20.28 2.332-40.48 4.222-61.02 2.13-21.44 4.176-42.69 5.493-63.26 1.324-20.58 1.886-40.25 2.175-59.38.47-19.55.887-38.77 1.641-56.98.867-18.1 1.887-35.35 3.8-51.69 3.02-29.13 6.946-56.47 7.763-83.56-.567-13.472-1.153-29.331.722-44.734 4.203-15.769 12.508-30.703 24.063-41.668 15.824-10.957 33.254-16.093 52.039-18.488 20.441-1.941 40.508-1.773 56.617-3.125"
        style="fill:#ffffff;fill-opacity:1;fill-rule:nonzero;stroke:none"
        transform="matrix(.13333 0 0 -.13333 0 466.667)"/>
</svg>
