<svg xmlns="http://www.w3.org/2000/svg" width="532" height="532">
    <circle cx="270.76" cy="260.934" r="86.349" fill="#ffb6b6"/>
    <path fill="#ffb6b6" d="m221.19 360.052-3.901-39.434 77.9-14.566 46 112-80 92-57-112z"/>
    <path fill="#2f2e41"
          d="m216.037 340.357 17.032 3.848s-13.389-42.454-8.844-46.507c4.544-4.053 15.68 2.333 15.68 2.333l11.702 13.12 14.254-14.512s15.475-19.243 21.534-24.647-3.674-25.463-3.674-25.463 89.892-24.24 56.443-67.84c0 0-19.61-34.185-25.997-23.049-6.386 11.136-14.002-6.55-14.002-6.55l-23.253 4.422s-45.895-27.06-89.454 30.83 28.58 154.015 28.58 154.015"/>
    <path fill="#6c63ff"
          d="M433.16 472.95C385.97 511.21 327.59 532 266 532c-56.24 0-109.81-17.34-154.62-49.48.08-.84.16-1.67.23-2.5 1.19-13 2.25-25.64 2.95-36.12 2.71-40.69 97.64-67.81 97.64-67.81s.43.43 1.29 1.18c5.24 4.6 26.51 21.28 63.81 25.94 33.26 4.16 44.21-15.57 47.52-25.02 1-2.88 1.3-4.81 1.3-4.81l97.64 46.11c6.37 9.1 8.86 28.7 9.35 50.73.02.91.04 1.81.05 2.73"/>
</svg>
