<svg fill="currentColor" xmlns="http://www.w3.org/2000/svg" xml:space="preserve" width="800" height="800"
     viewBox="0 0 512 512"><path d="M300.27 0H94.318v512H242.27L256 352.018 269.729 512h147.953V0zm-73.142 15.398h57.744v37.729h-57.744zm-117.412 0h101.239v37.729H109.716zm0 48.511h52.262c-.443 23.015-7.676 44.202-18.632 59.518-5.654 7.917-12.262 14.262-19.3 18.563-4.639 2.835-9.443 4.706-14.33 5.714zm118.419 432.693H109.716V158.727c7.007-1.127 13.737-3.729 19.955-7.541 12.721-7.804 23.435-20.458 31.06-35.992 7.308-14.917 11.638-32.564 11.984-51.285h58.646v164.103h19.827zm14.008-279.372V63.909h27.714V217.23zm160.14 279.372h-118.42l-23.052-268.59h19.827V63.909h58.6c.474 25.24 8.286 48.458 20.646 65.782 6.376 8.924 13.962 16.3 22.444 21.495 6.218 3.812 12.947 6.414 19.955 7.541zm0-348.897c-4.888-1.008-9.7-2.88-14.33-5.714-10.556-6.443-20.143-17.518-27-31.533-6.572-13.406-10.556-29.488-10.894-46.548h52.225v83.795zm0-94.578h-102.78V15.398h102.78z"/></svg>
