<svg stroke="currentColor" xmlns="http://www.w3.org/2000/svg" xml:space="preserve" width="800" height="800"
     viewBox="0 0 470 470"><path d="M401.17 68.83C356.785 24.444 297.771 0 235 0S113.215 24.444 68.83 68.83C24.444 113.216 0 172.229 0 235s24.444 121.784 68.83 166.17S172.229 470 235 470s121.785-24.444 166.17-68.83C445.556 356.784 470 297.771 470 235s-24.444-121.784-68.83-166.17M235 455c-121.309 0-220-98.691-220-220S113.691 15 235 15s220 98.691 220 220-98.691 220-220 220"/>
    <path
        d="M419.199 271.102a7.5 7.5 0 0 0 1.695-2.855 67.7 67.7 0 0 0 8.69-33.247c0-18.863-7.705-35.959-20.129-48.313C387.849 108.459 316.415 54 235 54c-39.762 0-77.495 12.648-109.119 36.578-29.932 22.649-52.449 54.625-63.624 90.249-9.845 7.839-16.174 19.915-16.174 33.448v69.434c-3.254.819-5.667 3.756-5.667 7.265a7.5 7.5 0 0 0 7.5 7.5h17.537C91.831 368.993 159.285 416 235 416c81.415 0 152.849-54.459 174.454-132.687a68.6 68.6 0 0 0 9.745-12.211m-5.576-26.081c-10.718-19.957-28.66-32.979-48.927-34.734l-4.266-8.361a7.5 7.5 0 0 0-13.361 6.817l1.971 3.862c-7.509 3.67-12.926 10.984-13.922 19.627l-8.822 9.309a7.5 7.5 0 1 0 10.887 10.319l10.728-11.318a7.5 7.5 0 0 0 2.045-5.599c.094-5.452 4.555-9.858 10.027-9.866l.019.001.022-.001c20.288.015 38.257 15.749 45.552 39.502-8.229 12.247-21.414 20.89-36.658 23.052V258.5a25.1 25.1 0 0 0 9.282-6.189 7.5 7.5 0 1 0-10.903-10.301 9.95 9.95 0 0 1-7.301 3.147 7.5 7.5 0 0 0-7.5 7.5c0 1.638.531 3.148 1.422 4.382v30.588C328.141 283.971 308.25 261.77 308.25 235c0-29.316 23.851-53.167 53.167-53.167s53.167 23.851 53.167 53.167a53.3 53.3 0 0 1-.961 10.021m-324.79-58.496c15.301 0 27.75 12.448 27.75 27.75v69.199h-20.25v-44.842l.934.539a7.497 7.497 0 0 0 10.245-2.745 7.5 7.5 0 0 0-2.745-10.245l-.934-.539.934-.539a7.5 7.5 0 1 0-7.5-12.99l-.934.539v-1.079c0-4.143-3.358-7.5-7.5-7.5s-7.5 3.357-7.5 7.5v1.078l-.934-.539a7.5 7.5 0 0 0-7.5 12.99l.934.539-.934.539a7.5 7.5 0 1 0 7.5 12.99l.934-.539v44.843h-20.25v-69.199c0-15.301 12.449-27.75 27.75-27.75M235 401c-67.544 0-127.921-40.784-153.434-102.525h48.184a7.5 7.5 0 0 0 7.5-7.5c0-3.509-2.412-6.446-5.667-7.265v-69.435c0-23.572-19.178-42.75-42.75-42.75-2.57 0-5.084.241-7.531.678C106.531 110.712 167.576 69 235 69c68.235 0 128.832 41.702 153.888 103.635a67.8 67.8 0 0 0-27.472-5.802c-37.587 0-68.167 30.58-68.167 68.167s30.58 68.167 68.167 68.167a67.8 67.8 0 0 0 27.472-5.802C363.832 359.298 303.235 401 235 401"/>
    <path
        d="M215.25 166.833c-37.587 0-68.167 30.58-68.167 68.167a67.73 67.73 0 0 0 8.688 33.245 7.5 7.5 0 0 0 1.698 2.859c12.064 19.237 33.447 32.063 57.781 32.063 37.587 0 68.167-30.58 68.167-68.167s-30.58-68.167-68.167-68.167m7.5 120.795V257.04a7.46 7.46 0 0 0 1.422-4.382 7.5 7.5 0 0 0-7.5-7.5 9.95 9.95 0 0 1-7.301-3.147 7.5 7.5 0 1 0-10.903 10.301 25.1 25.1 0 0 0 9.282 6.189v29.127c-15.244-2.163-28.429-10.806-36.658-23.053 7.296-23.752 25.264-39.487 45.552-39.5l.022.001.019-.001c5.474.007 9.937 4.417 10.027 9.872q-.008.154-.011.31a7.5 7.5 0 0 0 2.056 5.283l10.727 11.318a7.5 7.5 0 0 0 10.603.284 7.5 7.5 0 0 0 .284-10.603l-8.823-9.31c-.996-8.642-6.413-15.956-13.922-19.625l1.971-3.863a7.5 7.5 0 0 0-13.361-6.817l-4.266 8.362c-20.265 1.755-38.207 14.778-48.926 34.733a53 53 0 0 1-.96-10.021c0-29.316 23.851-53.167 53.167-53.167s53.167 23.851 53.167 53.167c-.001 26.772-19.892 48.973-45.668 52.63M375.69 367.564c-36.913 39.214-86.877 60.811-140.69 60.811s-103.777-21.597-140.69-60.811a7.5 7.5 0 0 0-10.922 10.282c19.269 20.471 42.021 36.582 67.627 47.887 26.515 11.707 54.772 17.643 83.984 17.643s57.469-5.936 83.984-17.643c25.606-11.305 48.359-27.416 67.627-47.887a7.5 7.5 0 0 0-10.92-10.282M249.447 42.543c48.178 3.562 93.012 24.965 126.243 60.268a7.48 7.48 0 0 0 5.462 2.359 7.5 7.5 0 0 0 5.459-12.641c-35.809-38.042-84.129-61.107-136.059-64.945-4.115-.285-7.727 2.796-8.032 6.927s2.796 7.726 6.927 8.032M88.848 105.17a7.48 7.48 0 0 0 5.462-2.359c33.231-35.303 78.065-56.706 126.243-60.268a7.5 7.5 0 0 0 6.927-8.032c-.306-4.132-3.912-7.227-8.032-6.927-51.93 3.838-100.25 26.903-136.059 64.945a7.5 7.5 0 0 0 5.459 12.641"/></svg>
