<svg xmlns="http://www.w3.org/2000/svg" viewBox="0 0 512 512" fill="currentColor">
    <path
        d="M32 256a224 224 0 1 1 448 0 224 224 0 1 1-448 0m480 0a256 256 0 1 0-512 0 256 256 0 1 0 512 0m-168.7-86.2c-6.5-24.6-28.7-41.8-54.2-41.8H232c-35.5 0-64 29-64 64.3 0 24 13.4 46.2 34.9 57.2l37.1 18.8V288c0 8.8 7.2 16 16 16s16-7.2 16-16v-29.5c0-6-3.4-11.5-8.7-14.3l-45.8-23.4c-10.7-5.4-17.5-16.6-17.5-28.7 0-17.8 14.4-32.3 32-32.3h57.1c10.9 0 20.5 7.4 23.2 17.9l.2.7c2.2 8.5 11 13.7 19.5 11.4s13.7-11 11.4-19.5l-.2-.7zM280 352a24 24 0 1 0-48 0 24 24 0 1 0 48 0"/>
</svg>
