<svg xmlns="http://www.w3.org/2000/svg" width="752" height="752">
    <path
        d="M486.375 164.313c7.871 5.446 13.648 12.152 15.625 21.687 1.213 13.367-1.829 25.22-5.266 38.04q-.834 3.195-1.662 6.393a3434 3434 0 0 1-4.425 16.804c-1.464 5.53-2.906 11.064-4.35 16.599a10567 10567 0 0 1-6.87 26.157 13106 13106 0 0 0-10.286 39.28L464 349l1.874.41 2.457.542 2.437.535c13.802 3.172 29.248 8.124 37.763 20.013 11.732 19.969 7.169 46.846 1.803 68.142a331 331 0 0 1-2.147 7.733l-.64 2.228c-5.99 19.359-16.46 37.387-25.568 55.417-15.06 27.41-15.06 27.41-23.166 57.168-1.505 12.905-1.505 12.905-5.813 16.812-2.853 1.427-4.835 1.31-8 1-2.7-1.8-4.542-3.084-6-6-1.267-18.322 3.918-33.664 12.281-49.659 1.874-3.642 3.666-7.316 5.438-11.009l.973-2.028 1.987-4.141c4.466-9.302 8.992-18.57 13.692-27.757 13.648-26.705 28.84-59.745 21.442-90.593-2.035-6.243-5.288-9.131-11.004-12.133-6.944-3.42-14.284-5.508-21.684-7.68l-4.413-1.314c-8.141-2.41-16.301-4.756-24.524-6.873l-2.4-.631c-3.618-.89-6.257-1.468-9.788-.182-3.892 5.333-4.635 10.476-4 17 2.965 10.167 16.082 16.137 24.484 21.664 10.968 7.24 10.968 7.24 12.516 10.336.391 6.465-.73 12.018-2.375 18.25l-.672 2.68c-2.637 10.27-2.637 10.27-6.025 12.331l-2.55 1.071-2.818 1.22-2.998 1.26C424.376 450.152 414.135 456.288 404 465l-2.121 1.793c-9.163 8.377-14.226 18.95-16.6 30.965-1.246 6.176-1.246 6.176-4.279 8.242-4.629 1.114-7.805 1.397-12-1-3.029-4.543-2.52-8.672-2-14 3.304-15.988 11.643-27.8 23-39l2.21-2.242c7.906-7.542 17.746-13.349 27.532-18.113l2.346-1.159q2.233-1.086 4.504-2.091c3.96-1.894 3.96-1.894 6.323-5.449.662-2.45.662-2.45 1.085-5.946a1912 1912 0 0 0-5.187-3.937l-1.622-1.231c-2.827-2.126-5.675-4.181-8.636-6.117-10.483-6.86-17.821-14.12-20.555-26.715-1.248-12.567 1.049-23.967 9-34 6.046-5.08 11.815-6.332 19.563-6.3 6.957.608 13.697 2.53 20.437 4.3l.373-3.473c.556-4.424 1.54-8.655 2.661-12.967l.623-2.442a3058 3058 0 0 1 2.05-7.97q.725-2.823 1.446-5.649 1.53-5.975 3.07-11.949 1.988-7.723 3.965-15.45c4.607-17.995 9.22-35.988 14.007-53.936l.881-3.315c1.258-4.731 2.528-9.459 3.824-14.18 3.829-13.035 3.829-13.035 1.663-26.044-5.195-5.321-11.869-7.333-19.204-7.777-3.972.256-6.457 1.475-9.359 4.152-3.224 5.051-5.013 10.681-6.619 16.408l-.703 2.433c-.762 2.645-1.513 5.292-2.264 7.94q-.808 2.817-1.619 5.633a5711 5711 0 0 0-3.412 11.922c-1.759 6.17-3.529 12.338-5.301 18.505q-3.478 12.105-6.945 24.212a9890 9890 0 0 1-10.716 37.175 4324 4324 0 0 0-2.499 8.655l-1.48 5.097-.631 2.207c-3.495 11.935-3.495 11.935-7.811 14.813-7.077.562-7.077.562-10.012-1.224-2.36-2.108-2.91-3.543-3.825-6.552l-.926-2.977c-.32-1.075-.639-2.15-.967-3.259l-1.054-3.427q-1.423-4.648-2.818-9.304c-.984-3.268-1.984-6.53-2.982-9.794-1.87-6.12-3.725-12.245-5.575-18.372a8605 8605 0 0 0-6.454-21.24c-11.534-37.876-11.534-37.876-15.496-51.48l-2.026-6.889a739 739 0 0 1-1.736-6.074c-2.088-7.096-3.775-12.544-10.184-16.76-6.501-2.167-12.68-.527-18.773 2.141-4.024 2.244-5.747 4.936-7.172 9.211-.603 6.615 1.329 12.19 3.332 18.45l1.054 3.377c1.132 3.623 2.279 7.242 3.426 10.86q1.765 5.607 3.526 11.216 1.173 3.737 2.35 7.473a1006 1006 0 0 1 6.644 21.983l1.456 4.978c.663 2.268 1.32 4.536 1.952 6.813 2.062 7.403 3.995 13.517 9.542 19.067 2.943 3.054 4.906 6.698 7.03 10.346 3.437 5.758 6.935 11.441 10.688 17a977 977 0 0 1 11.809 17.945A753 753 0 0 0 383 351.504c8.35 12.543 13.672 21.812 12 37.496-2.272 9.224-8.788 15.755-16.5 20.875-8.57 5.098-15.696 5.39-25.5 5.125l-.352 2.727c-1.718 8.677-7.938 13.836-14.984 18.613-8.948 5.576-17.761 6.647-28.062 4.441-11.815-3.548-18.206-14.27-24.352-24.219l-3.36-5.37-1.783-2.856c-4.306-6.818-8.714-13.573-13.107-20.336q.717 12.675 1.461 25.35.346 5.886.68 11.773.32 5.69.66 11.38.127 2.16.247 4.322c.622 11.246 1.886 20.668 6.776 30.863l1.148 2.45c1.23 2.625 2.473 5.243 3.716 7.862q1.933 4.117 3.86 8.235 1.305 2.786 2.615 5.571c3.87 8.24 7.668 16.514 11.43 24.805q1.428 3.149 2.86 6.295l3.245 7.148c4.03 9.118 4.03 9.118 3.302 14.946-1.988 2.92-3.431 4.611-6.937 5.48-2.332.164-3.822.242-6.063-.48-4.037-3.522-6.35-7.137-8.46-11.984l-.933-2.062c-1.004-2.23-1.993-4.467-2.982-6.704q-1.052-2.346-2.107-4.69a3535 3535 0 0 1-4.349-9.713c-2.08-4.656-4.187-9.298-6.306-13.937l-1.007-2.207-1.968-4.31-3.518-7.71c-.862-1.9-1.71-3.808-2.554-5.716a116 116 0 0 0-3.602-7.31c-6.238-12.34-6.744-24.484-7.429-38.122a3664 3664 0 0 0-.44-7.342c-.384-6.405-.731-12.812-1.07-19.22-.282-5.2-.59-10.398-.9-15.597q-.556-9.388-1.09-18.778l-.203-3.548c-.596-10.59-1.185-21.183-1.303-31.79l-.044-3.88c.58-7.4 4.504-12.917 9.265-18.38 7.713-6.342 16.298-11.166 26.531-10.945 2.219.257 2.219.257 5.469.945l.445-1.687c2.944-10.017 7.856-15.506 16.801-20.836C309.164 285.84 313.32 284 319 284l-.904-2.874a8764 8764 0 0 1-8.432-26.962q-2.154-6.933-4.335-13.858a2737 2737 0 0 1-4.182-13.402 915 915 0 0 0-1.597-5.084c-4.186-13.21-8.553-27.037-2.394-40.312 5.248-9.592 12.04-15.506 22.461-18.817L322 162l3-1c12.16-1.045 21.086-.012 31.113 7.605 8.513 7.675 11.288 19.173 14.328 29.805l1.238 4.236a3105 3105 0 0 1 3.236 11.173c1.049 3.633 2.107 7.263 3.165 10.894q2.244 7.706 4.477 15.417c3.343 11.545 6.717 23.081 10.095 34.616l.817 2.788L398 293l.895-3.121q4.233-14.756 8.47-29.51a56343 56343 0 0 0 6.045-21.07l.842-2.934a11719 11719 0 0 1 6.551-22.726c1.363-4.721 2.71-9.446 4.027-14.18.86-3.076 1.736-6.148 2.608-9.22.28-1.04.562-2.078.852-3.149 3.02-10.513 8.694-18.79 17.71-25.09 13.029-6.945 27.848-4.991 40.375 2.313M308 309.313c-2.535 3.406-3.1 6.52-3 10.687 1.205 3.27 1.205 3.27 3.375 6.375l1.186 1.86c1.458 2.27 2.95 4.516 4.439 6.765q2.002 3.077 4 6.156 4.4 6.769 8.84 13.512c3.392 5.156 6.755 10.33 10.098 15.52a5811 5811 0 0 0 3.8 5.865q1.316 2.03 2.625 4.062a1303 1303 0 0 0 4.075 6.26l1.216 1.895c2.97 4.51 5.312 7.08 10.471 8.73 6.077 0 10.984-2.537 15.59-6.46 2.986-3.272 4.373-6.13 4.285-10.54-3.007-6.758-6.983-12.785-11.062-18.937l-4.051-6.16c-.662-1.005-1.324-2.01-2.007-3.044-2.564-3.898-5.1-7.814-7.63-11.734l-1.318-2.037a4324 4324 0 0 1-6.807-10.56q-3.44-5.35-6.917-10.673a726 726 0 0 1-3.243-5.039c-3.088-4.676-5.363-8.111-10.965-9.816-6.848-.546-11.765 3.278-17 7.313m-41.562 27c-2.095 3.915-2.08 7.326-1.438 11.687 1.306 3.149 3.125 5.83 5.063 8.625l1.625 2.457a682 682 0 0 0 3.494 5.219c2.446 3.632 4.83 7.303 7.216 10.976a1823 1823 0 0 0 3.733 5.718c3.422 5.22 6.804 10.464 10.135 15.743l2.143 3.388q2.034 3.22 4.049 6.45c6.291 11.09 6.291 11.09 16.417 17.736 6.228.182 11.238-3.567 15.625-7.625 1.97-3.53 2.808-6.68 2.5-10.687-2.951-6.776-6.988-12.792-11.062-18.937l-4.07-6.192-2.01-3.047c-2.449-3.722-4.876-7.458-7.296-11.199-.42-.647-.84-1.295-1.274-1.961-2.82-4.353-5.592-8.734-8.347-13.129q-1.62-2.573-3.244-5.144a1016 1016 0 0 1-3.128-5.016l-1.967-3.113-1.74-2.783c-3.033-4.039-5.77-6.152-10.612-7.604-6.566-.547-11.244 4.314-15.812 8.438"/>
</svg>
