<svg width="24" height="24" fill="currentColor" xmlns="http://www.w3.org/2000/svg" viewBox="0 0 448 512"><path d="M216 8c0-4.4 3.6-8 8-8s8 3.6 8 8v24.2c84.6 4.2 152 74.1 152 159.8v36.6c0 41.8 14.2 82.3 40.3 114.9l16.7 20.9c4.5 5.6 6.9 12.6 6.9 19.8 0 17.5-14.2 31.7-31.7 31.7H31.7C14.2 416 0 401.8 0 384.3c0-7.2 2.4-14.2 6.9-19.8l16.7-20.9C49.8 311 64 270.4 64 228.6V192c0-85.7 67.4-155.6 152-159.8V8zm8 40c-79.5 0-144 64.5-144 144v36.6c0 45.4-15.5 89.5-43.8 124.9l-16.8 21c-2.2 2.8-3.4 6.2-3.4 9.8 0 8.7 7 15.7 15.7 15.7h384.6c8.7 0 15.7-7 15.7-15.7 0-3.6-1.2-7-3.4-9.8l-16.7-20.9c-28.4-35.5-43.9-79.5-43.9-125V192c0-79.5-64.5-144-144-144zm-48 400c0 12.7 5.1 24.9 14.1 33.9S211.3 496 224 496s24.9-5.1 33.9-14.1S272 460.7 272 448c0-4.4 3.6-8 8-8s8 3.6 8 8c0 17-6.7 33.3-18.7 45.3S241 512 224 512s-33.3-6.7-45.3-18.7S160 465 160 448c0-4.4 3.6-8 8-8s8 3.6 8 8z"/></svg>