<svg xmlns="http://www.w3.org/2000/svg" fill="currentColor" xml:space="preserve" viewBox="0 0 100 125"><path d="m50.455 56.676.22-12.415c19.636-.957 29.996-20.232 29.996-20.232s-2.859.841-5.473 1.531c-3.853 6.742-12.496 14.444-24.449 14.39l.281-15.969-2.192-2.17-.94 17.95c-11.861-1.755-19.696-16.423-19.696-16.423l-6.808 1.776s8.951 18.139 26.271 19.141l-.652 12.412c-18.233.69-27.441 11.681-29.896 20.429l2.984-.724s9.385-14.914 26.682-15.28L46.152 73.1l3.943 3.996.276-15.846c13.089 1.699 25.371 16.939 25.371 16.939 4.151-1.688 7.14-3.051 7.14-3.051S69.093 57.654 50.455 56.676"/></svg>
