<?xml version="1.0" encoding="UTF-8"?>
<svg version="1.1" xmlns="http://www.w3.org/2000/svg" viewBox="0 0 512 512">
    <path
        d="M0 0 C2.51708984 1.19335938 2.51708984 1.19335938 4.9609375 2.84375 C5.84394531 3.43027344 6.72695312 4.01679688 7.63671875 4.62109375 C8.54035156 5.24113281 9.44398438 5.86117188 10.375 6.5 C11.30183594 7.12003906 12.22867188 7.74007813 13.18359375 8.37890625 C15.46427741 9.90719943 17.73564447 11.44766202 20 13 C26.36469538 9.57585955 32.2476816 5.81660543 38.10546875 1.57421875 C41.4952115 -0.26932555 43.18835254 -0.33634807 47 0 C49.51708984 1.19335938 49.51708984 1.19335938 51.9609375 2.84375 C52.84394531 3.43027344 53.72695313 4.01679688 54.63671875 4.62109375 C55.54035156 5.24113281 56.44398438 5.86117188 57.375 6.5 C58.30183594 7.12003906 59.22867188 7.74007813 60.18359375 8.37890625 C62.46427741 9.90719943 64.73564447 11.44766202 67 13 C73.36469538 9.57585955 79.2476816 5.81660543 85.10546875 1.57421875 C88.53954423 -0.29343633 90.13224494 -0.40580494 94 0 C97.12792969 1.60473633 97.12792969 1.60473633 100.421875 3.83203125 C101.00793518 4.22444504 101.59399536 4.61685883 102.19781494 5.02116394 C103.4290839 5.84948242 104.65590283 6.68445019 105.87841797 7.52563477 C107.74887363 8.81172553 109.63254269 10.0762156 111.51953125 11.33789062 C120.69119231 17.53678846 120.69119231 17.53678846 123 21 C123.39686602 25.35728186 122.77799038 28.18884464 120.81616211 32.06469727 C120.33823715 33.02332169 119.86031219 33.98194611 119.36790466 34.96961975 C118.84301956 35.9915593 118.31813446 37.01349884 117.77734375 38.06640625 C117.23904434 39.13688705 116.70074493 40.20736786 116.14613342 41.31028748 C114.42108786 44.73346588 112.67937756 48.14786126 110.9375 51.5625 C109.79125745 53.83344953 108.64606386 56.10492884 107.50195312 58.37695312 C102.14315997 68.99424195 96.7492482 79.587719 91 90 C91.77601563 90.0093457 92.55203125 90.01869141 93.3515625 90.02832031 C96.90166287 90.08233437 100.45048948 90.16592303 104 90.25 C105.22074219 90.26417969 106.44148437 90.27835937 107.69921875 90.29296875 C115.88689356 90.51425726 121.52236957 91.30529512 127.98828125 96.640625 C132.96429383 102.68816831 135.69176176 108.69322762 135.3359375 116.64453125 C134.15181231 124.94717644 130.6359186 130.04290735 124.31640625 135.40625 C121.94974585 137.03457621 119.70180718 138.0469816 117 139 C117.58523438 139.29390625 118.17046875 139.5878125 118.7734375 139.890625 C132.4570202 147.04060515 145.38975682 155.82703773 157 166 C157.80179687 166.69222656 158.60359375 167.38445312 159.4296875 168.09765625 C161.99571756 170.3562546 164.50507389 172.66307363 167 175 C167.73839111 175.68739258 167.73839111 175.68739258 168.49169922 176.38867188 C215.14210315 220.17521493 232.93240446 286.16769552 234.93035889 348.37121582 C235.20575117 358.76661085 235.26547538 369.16405398 235.3125 379.5625 C235.32212769 380.76756195 235.33175537 381.9726239 235.3416748 383.21420288 C235.5646009 415.80716312 231.53153023 445.87147725 207.88671875 470.171875 C168.11564134 507.68901567 99.7452401 502.19650714 49.26660156 502.13037109 C44.88031871 502.12467436 40.49409653 502.12806879 36.10781574 502.13380432 C-14.75315712 502.19047548 -14.75315712 502.19047548 -38.1875 499.75 C-39.42669189 499.62141602 -40.66588379 499.49283203 -41.94262695 499.36035156 C-73.2525016 495.88303814 -105.64733282 487.68555351 -126.94140625 462.7578125 C-141.63005191 443.08004431 -147.1438835 419.92468081 -147.16796875 395.734375 C-147.17129715 394.54692688 -147.17462555 393.35947876 -147.17805481 392.13604736 C-147.18310777 389.61788314 -147.18546364 387.09971225 -147.18530273 384.58154297 C-147.18745321 380.83158379 -147.20552525 377.08193702 -147.22460938 373.33203125 C-147.39896072 299.6169491 -131.73303034 230.18798441 -78.875 176.5 C-65.04495632 162.70668408 -48.63595253 149.32077849 -30.81567383 140.97729492 C-28.82553065 140.13074844 -28.82553065 140.13074844 -28 138 C-28.804375 138 -29.60875 138 -30.4375 138 C-36.61129479 136.26700497 -41.17470351 132.03729337 -44.46484375 126.5625 C-47.22273185 120.28118903 -48.33088258 114.28444553 -46.26953125 107.6484375 C-43.35351245 100.53097119 -39.68916251 95.28829338 -32.56347656 91.8449707 C-27.21935533 90.08344655 -21.57716069 90.31478223 -16 90.25 C-14.74832031 90.22035156 -13.49664062 90.19070312 -12.20703125 90.16015625 C-9.13795759 90.08987212 -6.06962548 90.03696808 -3 90 C-3.26816025 89.47620758 -3.5363205 88.95241516 -3.81260681 88.41275024 C-6.65351054 82.86325053 -9.49321166 77.31313657 -12.33227539 71.76269531 C-13.38601574 69.70297349 -14.44004286 67.64339834 -15.49438477 65.58398438 C-18.0360181 60.61927082 -20.57330294 55.65245128 -23.10107422 50.68066406 C-24.96592813 47.01435335 -26.85314602 43.36124271 -28.76220703 39.71777344 C-29.59290568 38.1113965 -30.4234797 36.50495511 -31.25390625 34.8984375 C-31.63667221 34.18128571 -32.01943817 33.46413391 -32.4138031 32.72525024 C-34.46369265 28.72517716 -35.88896291 25.58417407 -35 21 C-30.39718169 15.39055967 -24.03725413 11.69334175 -18.0625 7.6875 C-16.99064453 6.94693359 -15.91878906 6.20636719 -14.81445312 5.44335938 C-13.77353516 4.74404297 -12.73261719 4.04472656 -11.66015625 3.32421875 C-10.71793213 2.68572998 -9.77570801 2.04724121 -8.80493164 1.3894043 C-5.51288339 -0.24128998 -3.63070077 -0.4734393 0 0 Z M-9.625 23 C-10.62789062 23.7425 -11.63078125 24.485 -12.6640625 25.25 C-13.43492187 25.8275 -14.20578125 26.405 -15 27 C-13.36331288 32.75205648 -10.61672548 37.7553208 -7.8125 43 C-2.02868249 53.93448194 3.52154777 64.9739496 9.01049805 76.05859375 C9.4751799 76.99419632 9.4751799 76.99419632 9.94924927 77.94869995 C10.79218072 79.64610201 11.63262842 81.34473686 12.47290039 83.04345703 C13.2288147 84.5069458 13.2288147 84.5069458 14 86 C14.41723328 86.87427139 14.83446655 87.74854279 15.26434326 88.64930725 C16.77344721 91.21528818 16.77344721 91.21528818 19.41081238 91.60127258 C20.36345474 91.59016953 21.31609711 91.57906647 22.29760742 91.56762695 C23.91894844 91.56706047 23.91894844 91.56706047 25.57304382 91.56648254 C26.73874405 91.54067612 27.90444427 91.51486969 29.10546875 91.48828125 C30.29981033 91.48120651 31.49415192 91.47413177 32.72468567 91.46684265 C36.54625602 91.43881302 40.36637111 91.37605358 44.1875 91.3125 C46.7753695 91.28742845 49.36326191 91.2646133 51.95117188 91.24414062 C58.30127932 91.18895798 64.65053572 91.10524449 71 91 C77.44298057 78.87413243 83.71857552 66.67969206 89.8125 54.375 C91.25405827 51.46492046 92.69845827 48.55627579 94.14453125 45.6484375 C94.4808255 44.96755066 94.81711975 44.28666382 95.16360474 43.58514404 C97.35685542 39.17631744 99.71852026 34.92613834 102.3894043 30.78369141 C103.22751284 28.94046078 103.22751284 28.94046078 102.24072266 26.87792969 C100.68450107 24.52246797 99.00920985 23.22483368 96.6875 21.625 C95.92824219 21.08101562 95.16898437 20.53703125 94.38671875 19.9765625 C92.05096873 18.75574569 92.05096873 18.75574569 89.66796875 19.51953125 C85.46329687 21.85272399 81.59387516 24.63586587 77.703125 27.45507812 C73.52102742 30.3612092 70.2631553 32.15702231 65 32 C62.02322205 30.76040869 59.46348648 29.07208648 56.8125 27.25 C55.76545898 26.56550781 55.76545898 26.56550781 54.69726562 25.8671875 C51.92142874 24.03951945 49.30094187 22.2701453 46.82421875 20.046875 C45.00401465 18.73145184 45.00401465 18.73145184 42.7109375 19.49609375 C38.49086062 21.83720268 34.60791262 24.62569441 30.703125 27.45507812 C26.52102742 30.3612092 23.2631553 32.15702231 18 32 C15.02322205 30.76040869 12.46348648 29.07208648 9.8125 27.25 C9.11447266 26.79367188 8.41644531 26.33734375 7.69726562 25.8671875 C4.93665656 24.04954576 2.25164333 22.19465964 -0.36328125 20.171875 C-4.09807204 17.49780045 -6.44563012 20.6339573 -9.625 23 Z M-28.36098576 110.34352875 C-30.27348312 112.92301908 -30.27348312 112.92301908 -30 116.125 C-28.82869379 119.49250535 -28.03012241 120.22259833 -25 122 C-22.30656867 122.45472211 -22.30656867 122.45472211 -19.31361389 122.39440918 C-18.15418777 122.40575897 -16.99476166 122.41710876 -15.80020142 122.42880249 C-14.53203583 122.42587189 -13.26387024 122.42294128 -11.95727539 122.41992188 C-10.60520221 122.42726308 -9.25313531 122.43584946 -7.90107727 122.44558716 C-4.23161846 122.46780634 -0.56238417 122.47073368 3.10713267 122.46883965 C6.17129211 122.46871997 9.23540393 122.47728297 12.29955012 122.48561716 C19.52875256 122.50485252 26.75783953 122.50773453 33.98706055 122.50097656 C41.44329952 122.49433463 48.89904393 122.5172055 56.35518259 122.55429029 C62.75871442 122.58498328 69.16208713 122.59634781 75.56569105 122.59245348 C79.38947003 122.59038561 83.21286413 122.59587051 87.03657341 122.62034607 C90.6327278 122.64260472 94.22807789 122.64074398 97.82423592 122.62041855 C99.77107668 122.61538135 101.71793238 122.63503328 103.66467285 122.65542603 C110.53844151 122.8199339 110.53844151 122.8199339 116.32325745 119.65686035 C118.27797029 117.08316498 118.27797029 117.08316498 118 113.875 C116.96818487 110.9085315 116.46331419 109.85030743 114 108 C111.37280822 107.54141422 111.37280822 107.54141422 108.35121155 107.60559082 C107.17488663 107.59424103 105.99856171 107.58289124 104.78659058 107.57119751 C102.8485405 107.57559341 102.8485405 107.57559341 100.87133789 107.58007812 C99.49808561 107.57273944 98.12483951 107.5641538 96.75160217 107.55441284 C93.02017082 107.53216675 89.28896008 107.52926767 85.55747151 107.53116035 C82.44356171 107.53127991 79.32969889 107.52272179 76.21580213 107.51438284 C68.87015467 107.49513766 61.52462085 107.49226899 54.17895508 107.49902344 C46.59832018 107.50566561 39.0181717 107.48279578 31.43763548 107.44570971 C24.93138064 107.41503305 18.42528243 107.40365043 11.9189567 107.40754652 C8.03204006 107.40961615 4.14550188 107.40410254 0.25865364 107.37965393 C-3.39657618 107.35742235 -7.05101418 107.35923346 -10.70624733 107.37958145 C-12.68788016 107.38462795 -14.66952749 107.36494715 -16.65106201 107.34457397 C-18.41977913 107.36138718 -18.41977913 107.36138718 -20.22422791 107.37854004 C-21.24905242 107.37782753 -22.27387693 107.37711502 -23.32975674 107.37638092 C-26.21555139 107.80413419 -26.21555139 107.80413419 -28.36098576 110.34352875 Z M-14 151 C-16.06788201 152.14830496 -18.13631746 153.29561386 -20.20532227 154.44189453 C-31.48056274 160.72804809 -41.963592 167.89483603 -52 176 C-52.57540527 176.46116211 -53.15081055 176.92232422 -53.74365234 177.39746094 C-66.77363506 187.9094825 -78.1302261 199.46305024 -88 213 C-88.41991211 213.57556641 -88.83982422 214.15113281 -89.27246094 214.74414062 C-123.11853299 261.82743523 -130.14910217 319.35279372 -130.24023438 375.84716797 C-130.24998234 379.49339254 -130.28113153 383.13906201 -130.3125 386.78515625 C-130.42400837 411.50344131 -128.13168076 435.97311986 -110.265625 454.7265625 C-109.14414063 455.85191406 -109.14414063 455.85191406 -108 457 C-107.39671875 457.62648438 -106.7934375 458.25296875 -106.171875 458.8984375 C-88.30986085 476.06150327 -60.37179717 480.1738838 -36.8125 482.6875 C-35.15130127 482.86659912 -35.15130127 482.86659912 -33.45654297 483.04931641 C-9.98392305 485.35356138 13.62551669 485.18802108 37.18457031 485.18530273 C40.78651003 485.18522203 44.38832104 485.19209195 47.99023438 485.20581055 C67.26443734 485.27794808 86.48714668 485.11235433 105.73828125 484.09765625 C106.90120382 484.03763459 106.90120382 484.03763459 108.08761978 483.97640038 C139.36050821 482.31959104 175.17071346 478.86698139 198 455 C198.928125 454.11828125 198.928125 454.11828125 199.875 453.21875 C214.73173822 438.09671288 218.14546986 415.16679268 218.16796875 394.953125 C218.17224884 393.79693665 218.17652893 392.64074829 218.18093872 391.44952393 C218.19091523 387.71630974 218.19099519 383.98322497 218.1875 380.25 C218.18656342 378.97858154 218.18562683 377.70716309 218.18466187 376.3972168 C218.0729466 306.78814889 206.68816926 239.9582073 156.4375 188.1875 C151.56025449 183.44985364 146.36331189 179.17375682 141 175 C140.46697266 174.57992676 139.93394531 174.15985352 139.38476562 173.72705078 C123.83345429 161.54880262 106.4059758 151.95454718 88.3361969 144.03543091 C86.83807343 143.37144435 85.35041263 142.68300828 83.87773132 141.96435547 C76.60367881 138.65391584 69.85408174 138.29373919 61.9375 138.1875 C60.94080795 138.17053574 60.94080795 138.17053574 59.92398071 138.15322876 C56.39261835 138.09357896 52.86189327 138.0564859 49.33007812 138.0390625 C46.46988204 138.0216792 43.6146226 137.96676033 40.75585938 137.875 C19.91853763 137.2197778 4.44027871 140.41529367 -14 151 Z "
        fill="currentColor" transform="translate(212,5)"/>
    <path
        d="M0 0 C1.45170593 -0.01902626 1.45170593 -0.01902626 2.93273926 -0.03843689 C4.490672 -0.03403343 4.490672 -0.03403343 6.08007812 -0.02954102 C7.15253784 -0.03478287 8.22499756 -0.04002472 9.32995605 -0.04542542 C11.59610122 -0.05184529 13.86227971 -0.05050909 16.12841797 -0.04199219 C19.59858384 -0.03347853 23.06710598 -0.0622518 26.53710938 -0.09399414 C28.7389318 -0.09560612 30.94075714 -0.09502869 33.14257812 -0.09204102 C34.18119995 -0.10327499 35.21982178 -0.11450897 36.28991699 -0.12608337 C43.47001822 -0.05648645 43.47001822 -0.05648645 46.73828125 2.29052734 C48.41335748 4.86896527 49.0393473 6.30887715 49.11132812 9.40405273 C46.83634647 15.70087696 43.30925075 21.06147322 39.67382812 26.65405273 C38.41567954 28.60956571 37.15787347 30.56529909 35.90039062 32.52124023 C35.2677832 33.50189453 34.63517578 34.48254883 33.98339844 35.49291992 C31.14592171 39.90529244 28.34592904 44.34101557 25.54882812 48.77905273 C25.07324463 49.5321875 24.59766113 50.28532227 24.10766602 51.0612793 C21.09522382 55.83369792 18.09853222 60.6157997 15.11132812 65.40405273 C15.99916992 65.3935791 16.88701172 65.38310547 17.80175781 65.37231445 C21.1041932 65.33817517 24.4064403 65.31312606 27.70898438 65.29418945 C29.1367489 65.28414846 30.56449295 65.27051292 31.9921875 65.25317383 C34.04757753 65.22884122 36.10269504 65.21755072 38.15820312 65.20874023 C39.3940918 65.1982666 40.62998047 65.18779297 41.90332031 65.17700195 C44.977951 65.3946128 46.60874212 65.66409765 49.11132812 67.40405273 C51.61164467 71.15452755 51.64736367 72.96261539 51.11132812 77.40405273 C49.30297852 80.09130859 49.30297852 80.09130859 46.11132812 82.40405273 C42.2772378 83.14006572 38.50148181 83.08088683 34.60742188 83.03295898 C33.49198502 83.03537094 32.37654816 83.0377829 31.22731018 83.04026794 C28.87293944 83.03928978 26.51854562 83.02590361 24.16430664 83.00097656 C20.55796364 82.96663972 16.95406686 82.98032821 13.34765625 82.99975586 C11.05923435 82.99285829 8.77081878 82.98318672 6.48242188 82.97045898 C5.40318954 82.97541885 4.32395721 82.98037872 3.21202087 82.98548889 C2.20740311 82.96965256 1.20278534 82.95381622 0.16772461 82.9375 C-0.71432144 82.93130142 -1.59636749 82.92510284 -2.50514221 82.91871643 C-5.66989387 82.23536736 -6.86686511 80.87972692 -8.88867188 78.40405273 C-10.34280861 74.4051767 -10.05924082 72.78953855 -8.32617188 68.87280273 C-5.55680476 63.55999057 -2.21003323 58.6325098 1.11132812 53.65405273 C7.70414873 43.67144711 13.96405703 33.53101922 20.02075195 23.21557617 C21.00391068 21.58248064 22.05395808 19.9901078 23.11132812 18.40405273 C22.01461792 18.37432373 22.01461792 18.37432373 20.89575195 18.34399414 C17.57142543 18.2485236 14.24770826 18.13893307 10.92382812 18.02905273 C9.77333984 17.99811523 8.62285156 17.96717773 7.4375 17.93530273 C6.32568359 17.89663086 5.21386719 17.85795898 4.06835938 17.81811523 C3.04718018 17.78669434 2.02600098 17.75527344 0.97387695 17.72290039 C-3.20705428 17.25720349 -5.99806334 16.44309603 -8.76367188 13.21655273 C-10.25868287 9.47902525 -9.95863083 7.25590497 -8.88867188 3.40405273 C-5.99938295 0.62579551 -3.95688624 0.0251656 0 0 Z "
        fill="currentColor" transform="translate(108.888671875,292.595947265625)"/>
    <path
        d="M0 0 C4.1643855 0.19520557 7.01045194 0.36503809 10 3.59375 C11.23759823 7.30654469 11.35608897 10.90681346 11.5625 14.78125 C11.60568359 15.53083984 11.64886719 16.28042969 11.69335938 17.05273438 C11.79922685 18.89953375 11.9000976 20.74661834 12 22.59375 C12.82242188 21.8925 13.64484375 21.19125 14.4921875 20.46875 C37.30187231 1.06508278 37.30187231 1.06508278 44.05859375 1.2890625 C46 1.59375 46 1.59375 48.5 3.09375 C50.59263681 6.58147801 50.87920071 9.69229687 50 13.59375 C48.0625 16.09375 48.0625 16.09375 45 18.59375 C43.62275425 19.84127521 42.24799056 21.09154317 40.875 22.34375 C33.19857395 29.11331041 25.26432252 35.55534816 17 41.59375 C18.34517259 44.6684302 19.72906454 46.46946902 22.3125 48.59375 C26.78682485 52.37152245 31.06791876 56.33048707 35.34301758 60.33007812 C37.78361417 62.60040054 40.21359968 64.76256741 42.83203125 66.83203125 C45.7691805 69.21879577 45.94435565 70.10222488 46.375 73.90625 C46 77.59375 46 77.59375 43.9375 80.53125 C41 82.59375 41 82.59375 37.6875 83.34375 C32.35754215 82.25969078 29.80136829 79.32711528 26 75.59375 C24.25674325 74.00299535 22.50658451 72.41977516 20.75 70.84375 C19.94046875 70.10640625 19.1309375 69.3690625 18.296875 68.609375 C16.26187041 66.82355465 14.19099251 65.18171705 12 63.59375 C11.96261719 64.47417969 11.92523438 65.35460937 11.88671875 66.26171875 C11.82097656 67.42316406 11.75523437 68.58460938 11.6875 69.78125 C11.62949219 70.92980469 11.57148438 72.07835937 11.51171875 73.26171875 C10.97235751 76.77374272 10.1005277 78.75674098 8 81.59375 C4.86128812 83.16310594 2.46144178 82.94576103 -1 82.59375 C-4.35509158 80.00067336 -5.8267175 78.5043197 -6.62818909 74.29272461 C-6.62915085 73.03983643 -6.63011261 71.78694824 -6.63110352 70.49609375 C-6.63825882 69.801138 -6.64541412 69.10618225 -6.65278625 68.39016724 C-6.66963363 66.10318357 -6.65029728 63.81817144 -6.62890625 61.53125 C-6.62973533 59.93611489 -6.63219619 58.34097987 -6.63621521 56.74584961 C-6.63907046 53.40680143 -6.62439967 50.06842505 -6.59692383 46.72949219 C-6.56284068 42.45536329 -6.56886137 38.1824353 -6.5875864 33.9082489 C-6.598169 30.61558065 -6.58920731 27.32319051 -6.57420158 24.0305481 C-6.5690285 22.45493395 -6.56949097 20.87929064 -6.57574654 19.30368042 C-6.58121435 17.09895665 -6.56077746 14.89593579 -6.53344727 12.69140625 C-6.52724869 11.43851807 -6.52105011 10.18562988 -6.5146637 8.89477539 C-5.8668797 4.73992352 -4.27015743 1.26770299 0 0 Z "
        fill="currentColor" transform="translate(239,292.40625)"/>
    <path
        d="M0 0 C3.92889396 3.28113262 5.84509346 6.2397497 7.55541992 11.02441406 C7.98904343 12.21625305 8.42266693 13.40809204 8.86943054 14.63604736 C9.32356931 15.92907866 9.77723704 17.22227548 10.23046875 18.515625 C10.71069547 19.85494142 11.19202249 21.19386376 11.6743927 22.53240967 C12.68055387 25.33353099 13.67732037 28.13774944 14.66674805 30.94482422 C15.92757839 34.52132043 17.20532423 38.0914576 18.48946667 41.65964127 C19.48334489 44.42398138 20.47116822 47.19045269 21.45693398 49.95769501 C21.92584485 51.27363462 22.39586094 52.58918101 22.86705589 53.9043045 C29.74612843 73.15431388 29.74612843 73.15431388 27.8125 77.9375 C25.42803142 80.65086079 23.72269144 81.89002522 20.125 82.4375 C15.9085504 81.84719706 14.62392771 80.27990963 12 77 C10.50524188 74.01048377 10 72.3530811 10 69 C1.42 69.33 -7.16 69.66 -16 70 C-17.32 72.97 -18.64 75.94 -20 79 C-22.36042382 81.5964662 -23.46961555 81.92100657 -26.9375 82.4375 C-30.91302153 81.86956835 -32.42506202 81.10507227 -35 78 C-35.93768216 69.64169521 -33.20025509 62.77207607 -30.328125 55.0234375 C-29.8433917 53.68582238 -29.3597481 52.34781192 -28.87713623 51.00942993 C-27.86702023 48.21749464 -26.84748953 45.42925721 -25.8203125 42.64355469 C-24.51044831 39.09043358 -23.21898305 35.53098049 -21.93385696 31.96884727 C-20.93713575 29.20952243 -19.93349283 26.45275787 -18.92751312 23.69679642 C-18.44927069 22.38572854 -17.9724799 21.07413013 -17.49723053 19.76197433 C-9.95253418 -1.01212212 -9.95253418 -1.01212212 0 0 Z M-4 34 C-5.00380916 36.79035046 -6.0031945 39.58214855 -7 42.375 C-7.28617187 43.1690625 -7.57234375 43.963125 -7.8671875 44.78125 C-8.13789063 45.54179687 -8.40859375 46.30234375 -8.6875 47.0859375 C-8.93886719 47.7876709 -9.19023437 48.4894043 -9.44921875 49.21240234 C-10.0981509 51.00680111 -10.0981509 51.00680111 -10 53 C-5.71 53 -1.42 53 3 53 C1.70024676 46.28460827 -0.29928888 40.27980887 -3 34 C-3.33 34 -3.66 34 -4 34 Z "
        fill="currentColor" transform="translate(323,293)"/>
    <path
        d="M0 0 C4.80654593 2.98048238 6.41994801 6.55564095 8.19921875 11.71875 C8.47618088 12.48138657 8.75314301 13.24402313 9.03849792 14.0297699 C9.93677811 16.51465959 10.81253622 19.00681499 11.6875 21.5 C12.30163579 23.21732985 12.91704258 24.93420568 13.53369141 26.65063477 C14.77454921 30.11089269 16.00667417 33.57408612 17.23291016 37.03955078 C18.82930525 41.53958836 20.47430834 46.02010852 22.13671875 50.49609375 C22.60832086 51.77586044 23.07944663 53.05580278 23.55004883 54.3359375 C24.4117382 56.67823374 25.27973111 59.01822393 26.1550293 61.35546875 C29.75985548 71.3010839 29.75985548 71.3010839 29 77 C26.54999553 80.38677089 25.13607554 81.78698584 21 82.5625 C17.15985938 81.84247363 15.65841271 80.87395969 13 78 C12.01 75.36 11.02 72.72 10 70 C-2.87 69.505 -2.87 69.505 -16 69 C-16.99 72.3 -17.98 75.6 -19 79 C-21.98947144 81.90643057 -23.40196459 82 -27.5625 82 C-31 81 -31 81 -33.5 78.9375 C-35.83665538 74.36154989 -34.65386822 70.20759718 -33.2472229 65.45846558 C-32.26770643 62.55743331 -31.23268342 59.68233304 -30.17578125 56.80859375 C-29.59995552 55.21423241 -29.59995552 55.21423241 -29.01249695 53.58766174 C-28.20013088 51.34307992 -27.38378948 49.09993336 -26.5637207 46.8581543 C-25.32639296 43.47548132 -24.1005553 40.08883078 -22.87695312 36.70117188 C-20.61535949 30.45590326 -18.31527474 24.22553463 -16 18 C-15.69398865 17.168172 -15.38797729 16.33634399 -15.07269287 15.47930908 C-14.28462282 13.34666187 -13.48028544 11.22116282 -12.66796875 9.09765625 C-12.24153076 7.96980713 -11.81509277 6.84195801 -11.37573242 5.67993164 C-8.7522529 0.56938422 -5.6426873 -0.80609819 0 0 Z M-3 35 C-5.74844552 40.90148454 -8.02989474 46.79416842 -10 53 C-5.38 53 -0.76 53 4 53 C2.2177429 46.88940424 0.30678315 40.9317281 -2 35 C-2.33 35 -2.66 35 -3 35 Z "
        fill="currentColor" transform="translate(199,293)"/>
    <path
        d="M0 0 C1.08047607 0.00205444 2.16095215 0.00410889 3.27416992 0.00622559 C4.50224365 -0.00307983 5.73031738 -0.01238525 6.99560547 -0.02197266 C8.33196158 -0.00638572 9.66830638 0.01019934 11.00463867 0.02770996 C12.37939347 0.02942172 13.75415153 0.02935472 15.12890625 0.02758789 C18.0073986 0.02924001 20.88511107 0.04791574 23.76342773 0.07946777 C27.4490589 0.11914635 31.13366905 0.12351269 34.81947327 0.11600494 C37.65744342 0.11293219 40.49518495 0.12506637 43.33309937 0.14213562 C44.69182907 0.14915609 46.05058469 0.15229131 47.40933228 0.15144348 C49.30966317 0.1532454 51.20993517 0.176918 53.11010742 0.20153809 C54.1905835 0.20995728 55.27105957 0.21837646 56.38427734 0.22705078 C59.56494904 0.67382716 60.9379452 1.35890548 63.19213867 3.62145996 C64.26209763 7.4733122 64.56214967 9.69643247 63.06713867 13.43395996 C60.77464972 16.1085304 59.58348251 16.63544995 56.19213867 17.62145996 C52.91648193 17.85590569 49.6614482 17.81008938 46.37963867 17.74645996 C45.49598633 17.73743652 44.61233398 17.72841309 43.7019043 17.71911621 C41.53186508 17.69565633 39.3619662 17.65978861 37.19213867 17.62145996 C37.20879326 18.73233223 37.20879326 18.73233223 37.2257843 19.86564636 C37.32608125 26.85411675 37.40215173 33.84247919 37.45119953 40.83148479 C37.47726411 44.42446856 37.51260196 48.01685632 37.56933594 51.60949707 C37.62377202 55.07844182 37.65358283 58.54681435 37.66652489 62.01615334 C37.68022316 63.97997047 37.71923886 65.94355821 37.75862122 67.9070282 C37.76174602 77.84328581 37.76174602 77.84328581 34.88037109 80.93322754 C31.30070741 83.18128624 29.34514617 83.36306844 25.19213867 82.62145996 C22.56091228 80.9690278 21.60543424 80.28700966 20.19213867 77.62145996 C19.48324028 73.08330185 19.61193195 68.59126891 19.70385742 64.00817871 C19.7131908 62.67012354 19.72030444 61.33205119 19.72529602 59.99397278 C19.74432548 56.4836351 19.79338814 52.97434298 19.84881592 49.4644165 C19.90009784 45.87823631 19.92282893 42.29188604 19.94799805 38.70544434 C20.00151318 31.67702186 20.08677496 24.6492912 20.19213867 17.62145996 C18.87858398 17.64466309 17.5650293 17.66786621 16.21166992 17.69177246 C14.47599854 17.71053648 12.74032099 17.728736 11.00463867 17.74645996 C10.14032227 17.76321777 9.27600586 17.77997559 8.38549805 17.79724121 C2.94798378 17.83890799 -1.50097431 17.84879915 -5.62036133 13.87145996 C-7.21897345 10.84251067 -7.29157268 9.00743945 -6.80786133 5.62145996 C-4.80382347 2.3938214 -3.77655499 0.83585955 0 0 Z "
        fill="currentColor" transform="translate(348.807861328125,292.3785400390625)"/>
</svg>
